
<global>
amp_veltrack=0
ampeg_attack=0.01
ampeg_release=2.50
</global>

<group>
group_label=RR1_85-127
seq_length=4
seq_position=1
xf_cccurve=gain
xfin_hicc1=127
xfin_locc1=85
xfout_hicc1=127
xfout_locc1=127

<region>
hikey=g#5
hivel=127
lokey=g5
lovel=1
offset=789
pitch_keycenter=g#5
sample=Violas_pizzicato_FF_G#5_RR1.opus
</region>

<region>
hikey=g#4
hivel=127
lokey=g4
lovel=1
pitch_keycenter=g#4
sample=Violas_pizzicato_FF_G#4_RR1.opus
</region>

<region>
hikey=g#3
hivel=127
lokey=g3
lovel=1
offset=213
pitch_keycenter=g#3
sample=Violas_pizzicato_FF_G#3_RR1.opus
</region>

<region>
hikey=f#5
hivel=127
lokey=f5
lovel=1
pitch_keycenter=f#5
sample=Violas_pizzicato_FF_F#5_RR1.opus
</region>

<region>
hikey=f#4
hivel=127
lokey=f4
lovel=1
pitch_keycenter=f#4
sample=Violas_pizzicato_FF_F#4_RR1.opus
</region>

<region>
hikey=f#3
hivel=127
lokey=f3
lovel=1
offset=2618
pitch_keycenter=f#3
sample=Violas_pizzicato_FF_F#3_RR1.opus
</region>

<region>
hikey=e5
hivel=127
lokey=d#5
lovel=1
pitch_keycenter=e5
sample=Violas_pizzicato_FF_E5_RR1.opus
</region>

<region>
hikey=e4
hivel=127
lokey=d#4
lovel=1
offset=255
pitch_keycenter=e4
sample=Violas_pizzicato_FF_E4_RR1.opus
</region>

<region>
hikey=e3
hivel=127
lokey=d#3
lovel=1
offset=694
pitch_keycenter=e3
sample=Violas_pizzicato_FF_E3_RR1.opus
</region>

<region>
hikey=d5
hivel=127
lokey=c#5
lovel=1
pitch_keycenter=d5
sample=Violas_pizzicato_FF_D5_RR1.opus
</region>

<region>
hikey=d4
hivel=127
lokey=c#4
lovel=1
pitch_keycenter=d4
sample=Violas_pizzicato_FF_D4_RR1.opus
</region>

<region>
hikey=d3
hivel=127
lokey=c#3
lovel=1
offset=12291
pitch_keycenter=d3
sample=Violas_pizzicato_FF_D3_RR1.opus
</region>

<region>
hikey=C#6
hivel=127
lokey=b5
lovel=1
offset=2638
pitch_keycenter=C6
sample=Violas_pizzicato_FF_C6_RR1.opus
</region>

<region>
hikey=c5
hivel=127
lokey=b4
lovel=1
pitch_keycenter=c5
sample=Violas_pizzicato_FF_C5_RR1.opus
</region>

<region>
hikey=c4
hivel=127
lokey=b3
lovel=1
offset=1444
pitch_keycenter=c4
sample=Violas_pizzicato_FF_C4_RR1.opus
</region>

<region>
hivel=127
key=c3
lovel=1
offset=83
sample=Violas_pizzicato_FF_C3_RR1.opus
</region>

<region>
hikey=a#5
hivel=127
lokey=a5
lovel=1
offset=427
pitch_keycenter=a#5
sample=Violas_pizzicato_FF_A#5_RR1.opus
</region>

<region>
hikey=a#4
hivel=127
lokey=a4
lovel=1
pitch_keycenter=a#4
sample=Violas_pizzicato_FF_A#4_RR1.opus
</region>

<region>
hikey=a#3
hivel=127
lokey=a3
lovel=1
pitch_keycenter=a#3
sample=Violas_pizzicato_FF_A#3_RR1.opus
</region>
</group>

<group>
group_label=RR1_0-42
seq_length=4
seq_position=1
xf_cccurve=gain
xfin_hicc1=42
xfout_hicc1=84
xfout_locc1=42

<region>
hikey=g#5
hivel=127
lokey=g5
lovel=1
offset=10914
pitch_keycenter=g#5
sample=Violas_pizzicato_PP_G#5_RR1.opus
</region>

<region>
hikey=g#4
hivel=127
lokey=g4
lovel=1
offset=8926
pitch_keycenter=g#4
sample=Violas_pizzicato_PP_G#4_RR1.opus
</region>

<region>
hikey=g#3
hivel=127
lokey=g3
lovel=1
offset=9765
pitch_keycenter=g#3
sample=Violas_pizzicato_PP_G#3_RR1.opus
</region>

<region>
hikey=f#5
hivel=127
lokey=f5
lovel=1
offset=9147
pitch_keycenter=f#5
sample=Violas_pizzicato_PP_F#5_RR1.opus
</region>

<region>
hikey=f#4
hivel=127
lokey=f4
lovel=1
offset=11220
pitch_keycenter=f#4
sample=Violas_pizzicato_PP_F#4_RR1.opus
</region>

<region>
hikey=f#3
hivel=127
lokey=f3
lovel=1
offset=10120
pitch_keycenter=f#3
sample=Violas_pizzicato_PP_F#3_RR1.opus
</region>

<region>
hikey=e5
hivel=127
lokey=d#5
lovel=1
offset=10127
pitch_keycenter=e5
sample=Violas_pizzicato_PP_E5_RR1.opus
</region>

<region>
hikey=e4
hivel=127
lokey=d#4
lovel=1
offset=10075
pitch_keycenter=e4
sample=Violas_pizzicato_PP_E4_RR1.opus
</region>

<region>
hikey=e3
hivel=127
lokey=d#3
lovel=1
offset=10410
pitch_keycenter=e3
sample=Violas_pizzicato_PP_E3_RR1.opus
</region>

<region>
hikey=d5
hivel=127
lokey=c#5
lovel=1
offset=9895
pitch_keycenter=d5
sample=Violas_pizzicato_PP_D5_RR1.opus
</region>

<region>
hikey=d4
hivel=127
lokey=c#4
lovel=1
offset=10443
pitch_keycenter=d4
sample=Violas_pizzicato_PP_D4_RR1.opus
</region>

<region>
hikey=d3
hivel=127
lokey=c#3
lovel=1
offset=9583
pitch_keycenter=d3
sample=Violas_pizzicato_PP_D3_RR1.opus
</region>

<region>
hikey=C#6
hivel=127
lokey=b5
lovel=1
offset=10136
pitch_keycenter=C6
sample=Violas_pizzicato_PP_C6_RR1.opus
</region>

<region>
hikey=c5
hivel=127
lokey=b4
lovel=1
offset=10252
pitch_keycenter=c5
sample=Violas_pizzicato_PP_C5_RR1.opus
</region>

<region>
hikey=c4
hivel=127
lokey=b3
lovel=1
offset=10892
pitch_keycenter=c4
sample=Violas_pizzicato_PP_C4_RR1.opus
</region>

<region>
hivel=127
key=c3
lovel=1
offset=10951
sample=Violas_pizzicato_PP_C3_RR1.opus
</region>

<region>
hikey=a#5
hivel=127
lokey=a5
lovel=1
offset=10637
pitch_keycenter=a#5
sample=Violas_pizzicato_PP_A#5_RR1.opus
</region>

<region>
hikey=a#4
hivel=127
lokey=a4
lovel=1
offset=10117
pitch_keycenter=a#4
sample=Violas_pizzicato_PP_A#4_RR1.opus
</region>

<region>
hikey=a#3
hivel=127
lokey=a3
lovel=1
offset=10546
pitch_keycenter=a#3
sample=Violas_pizzicato_PP_A#3_RR1.opus
</region>
</group>

<group>
group_label=RR1_43-84
seq_length=4
seq_position=1
xf_cccurve=gain
xfin_hicc1=84
xfin_locc1=43
xfout_hicc1=125
xfout_locc1=84

<region>
hikey=g#5
hivel=127
lokey=g5
lovel=1
offset=9347
pitch_keycenter=g#5
sample=Violas_pizzicato_MF_G#5_RR1.opus
</region>

<region>
hikey=g#4
hivel=127
lokey=g4
lovel=1
pitch_keycenter=g#4
sample=Violas_pizzicato_MF_G#4_RR1.opus
</region>

<region>
hikey=g#3
hivel=127
lokey=g3
lovel=1
pitch_keycenter=g#3
sample=Violas_pizzicato_MF_G#3_RR1.opus
</region>

<region>
hikey=f#5
hivel=127
lokey=f5
lovel=1
offset=5741
pitch_keycenter=f#5
sample=Violas_pizzicato_MF_F#5_RR1.opus
</region>

<region>
hikey=f#4
hivel=127
lokey=f4
lovel=1
offset=774
pitch_keycenter=f#4
sample=Violas_pizzicato_MF_F#4_RR1.opus
</region>

<region>
hikey=f#3
hivel=127
lokey=f3
lovel=1
offset=11341
pitch_keycenter=f#3
sample=Violas_pizzicato_MF_F#3_RR1.opus
</region>

<region>
hikey=e5
hivel=127
lokey=d#5
lovel=1
offset=10417
pitch_keycenter=e5
sample=Violas_pizzicato_MF_E5_RR1.opus
</region>

<region>
hikey=e4
hivel=127
lokey=d#4
lovel=1
offset=10078
pitch_keycenter=e4
sample=Violas_pizzicato_MF_E4_RR1.opus
</region>

<region>
hikey=e3
hivel=127
lokey=d#3
lovel=1
offset=6105
pitch_keycenter=e3
sample=Violas_pizzicato_MF_E3_RR1.opus
</region>

<region>
hikey=d5
hivel=127
lokey=c#5
lovel=1
offset=9285
pitch_keycenter=d5
sample=Violas_pizzicato_MF_D5_RR1.opus
</region>

<region>
hikey=d4
hivel=127
lokey=c#4
lovel=1
offset=10594
pitch_keycenter=d4
sample=Violas_pizzicato_MF_D4_RR1.opus
</region>

<region>
hikey=d3
hivel=127
lokey=c#3
lovel=1
offset=9784
pitch_keycenter=d3
sample=Violas_pizzicato_MF_D3_RR1.opus
</region>

<region>
hikey=C#6
hivel=127
lokey=b5
lovel=1
offset=8714
pitch_keycenter=C6
sample=Violas_pizzicato_MF_C6_RR1.opus
</region>

<region>
hikey=c5
hivel=127
lokey=b4
lovel=1
offset=11262
pitch_keycenter=c5
sample=Violas_pizzicato_MF_C5_RR1.opus
</region>

<region>
hikey=c4
hivel=127
lokey=b3
lovel=1
pitch_keycenter=c4
sample=Violas_pizzicato_MF_C4_RR1.opus
</region>

<region>
hivel=127
key=c3
lovel=1
sample=Violas_pizzicato_MF_C3_RR1.opus
</region>

<region>
hikey=a#5
hivel=127
lokey=a5
lovel=1
offset=10219
pitch_keycenter=a#5
sample=Violas_pizzicato_MF_A#5_RR1.opus
</region>

<region>
hikey=a#4
hivel=127
lokey=a4
lovel=1
offset=9476
pitch_keycenter=a#4
sample=Violas_pizzicato_MF_A#4_RR1.opus
</region>

<region>
hikey=a#3
hivel=127
lokey=a3
lovel=1
pitch_keycenter=a#3
sample=Violas_pizzicato_MF_A#3_RR1.opus
</region>
</group>

<group>
group_label=RR2_85-127
seq_length=4
seq_position=2
xf_cccurve=gain
xfin_hicc1=127
xfin_locc1=85
xfout_hicc1=127
xfout_locc1=127

<region>
hikey=g#5
hivel=127
lokey=g5
lovel=1
offset=640
pitch_keycenter=g#5
sample=Violas_pizzicato_FF_G#5_RR2.opus
</region>

<region>
hikey=g#4
hivel=127
lokey=g4
lovel=1
offset=1209
pitch_keycenter=g#4
sample=Violas_pizzicato_FF_G#4_RR2.opus
</region>

<region>
hikey=g#3
hivel=127
lokey=g3
lovel=1
pitch_keycenter=g#3
sample=Violas_pizzicato_FF_G#3_RR2.opus
</region>

<region>
hikey=f#5
hivel=127
lokey=f5
lovel=1
pitch_keycenter=f#5
sample=Violas_pizzicato_FF_F#5_RR2.opus
</region>

<region>
hikey=f#4
hivel=127
lokey=f4
lovel=1
pitch_keycenter=f#4
sample=Violas_pizzicato_FF_F#4_RR2.opus
</region>

<region>
hikey=f#3
hivel=127
lokey=f3
lovel=1
pitch_keycenter=f#3
sample=Violas_pizzicato_FF_F#3_RR2.opus
</region>

<region>
hikey=e5
hivel=127
lokey=d#5
lovel=1
pitch_keycenter=e5
sample=Violas_pizzicato_FF_E5_RR2.opus
</region>

<region>
hikey=e4
hivel=127
lokey=d#4
lovel=1
pitch_keycenter=e4
sample=Violas_pizzicato_FF_E4_RR2.opus
</region>

<region>
hikey=e3
hivel=127
lokey=d#3
lovel=1
offset=1647
pitch_keycenter=e3
sample=Violas_pizzicato_FF_E3_RR2.opus
</region>

<region>
hikey=d5
hivel=127
lokey=c#5
lovel=1
pitch_keycenter=d5
sample=Violas_pizzicato_FF_D5_RR2.opus
</region>

<region>
hikey=d4
hivel=127
lokey=c#4
lovel=1
pitch_keycenter=d4
sample=Violas_pizzicato_FF_D4_RR2.opus
</region>

<region>
hikey=d3
hivel=127
lokey=c#3
lovel=1
pitch_keycenter=d3
sample=Violas_pizzicato_FF_D3_RR2.opus
</region>

<region>
hikey=C#6
hivel=127
lokey=b5
lovel=1
pitch_keycenter=C6
sample=Violas_pizzicato_FF_C6_RR2.opus
</region>

<region>
hikey=c5
hivel=127
lokey=b4
lovel=1
pitch_keycenter=c5
sample=Violas_pizzicato_FF_C5_RR2.opus
</region>

<region>
hikey=c4
hivel=127
lokey=b3
lovel=1
pitch_keycenter=c4
sample=Violas_pizzicato_FF_C4_RR2.opus
</region>

<region>
hivel=127
key=c3
lovel=1
offset=11651
sample=Violas_pizzicato_FF_C3_RR2.opus
</region>

<region>
hikey=a#5
hivel=127
lokey=a5
lovel=1
pitch_keycenter=a#5
sample=Violas_pizzicato_FF_A#5_RR2.opus
</region>

<region>
hikey=a#4
hivel=127
lokey=a4
lovel=1
pitch_keycenter=a#4
sample=Violas_pizzicato_FF_A#4_RR2.opus
</region>

<region>
hikey=a#3
hivel=127
lokey=a3
lovel=1
pitch_keycenter=a#3
sample=Violas_pizzicato_FF_A#3_RR2.opus
</region>
</group>

<group>
group_label=RR2_0-42
seq_length=4
seq_position=2
xf_cccurve=gain
xfin_hicc1=42
xfout_hicc1=84
xfout_locc1=42

<region>
hikey=g#5
hivel=127
lokey=g5
lovel=1
offset=9213
pitch_keycenter=g#5
sample=Violas_pizzicato_PP_G#5_RR2.opus
</region>

<region>
hikey=g#4
hivel=127
lokey=g4
lovel=1
offset=11322
pitch_keycenter=g#4
sample=Violas_pizzicato_PP_G#4_RR2.opus
</region>

<region>
hikey=g#3
hivel=127
lokey=g3
lovel=1
offset=10233
pitch_keycenter=g#3
sample=Violas_pizzicato_PP_G#3_RR2.opus
</region>

<region>
hikey=f#5
hivel=127
lokey=f5
lovel=1
offset=7212
pitch_keycenter=f#5
sample=Violas_pizzicato_PP_F#5_RR2.opus
</region>

<region>
hikey=f#4
hivel=127
lokey=f4
lovel=1
offset=10517
pitch_keycenter=f#4
sample=Violas_pizzicato_PP_F#4_RR2.opus
</region>

<region>
hikey=f#3
hivel=127
lokey=f3
lovel=1
offset=10636
pitch_keycenter=f#3
sample=Violas_pizzicato_PP_F#3_RR2.opus
</region>

<region>
hikey=e5
hivel=127
lokey=d#5
lovel=1
offset=10422
pitch_keycenter=e5
sample=Violas_pizzicato_PP_E5_RR2.opus
</region>

<region>
hikey=e4
hivel=127
lokey=d#4
lovel=1
offset=10248
pitch_keycenter=e4
sample=Violas_pizzicato_PP_E4_RR2.opus
</region>

<region>
hikey=e3
hivel=127
lokey=d#3
lovel=1
offset=6876
pitch_keycenter=e3
sample=Violas_pizzicato_PP_E3_RR2.opus
</region>

<region>
hikey=d5
hivel=127
lokey=c#5
lovel=1
offset=11534
pitch_keycenter=d5
sample=Violas_pizzicato_PP_D5_RR2.opus
</region>

<region>
hikey=d4
hivel=127
lokey=c#4
lovel=1
offset=10105
pitch_keycenter=d4
sample=Violas_pizzicato_PP_D4_RR2.opus
</region>

<region>
hikey=d3
hivel=127
lokey=c#3
lovel=1
offset=9927
pitch_keycenter=d3
sample=Violas_pizzicato_PP_D3_RR2.opus
</region>

<region>
hikey=C#6
hivel=127
lokey=b5
lovel=1
offset=11039
pitch_keycenter=C6
sample=Violas_pizzicato_PP_C6_RR2.opus
</region>

<region>
hikey=c5
hivel=127
lokey=b4
lovel=1
offset=10554
pitch_keycenter=c5
sample=Violas_pizzicato_PP_C5_RR2.opus
</region>

<region>
hikey=c4
hivel=127
lokey=b3
lovel=1
offset=10313
pitch_keycenter=c4
sample=Violas_pizzicato_PP_C4_RR2.opus
</region>

<region>
hivel=127
key=c3
lovel=1
offset=9696
sample=Violas_pizzicato_PP_C3_RR2.opus
</region>

<region>
hikey=a#5
hivel=127
lokey=a5
lovel=1
offset=10250
pitch_keycenter=a#5
sample=Violas_pizzicato_PP_A#5_RR2.opus
</region>

<region>
hikey=a#4
hivel=127
lokey=a4
lovel=1
offset=10673
pitch_keycenter=a#4
sample=Violas_pizzicato_PP_A#4_RR2.opus
</region>

<region>
hikey=a#3
hivel=127
lokey=a3
lovel=1
offset=11454
pitch_keycenter=a#3
sample=Violas_pizzicato_PP_A#3_RR2.opus
</region>
</group>

<group>
group_label=RR2_43-84
seq_length=4
seq_position=2
xf_cccurve=gain
xfin_hicc1=84
xfin_locc1=43
xfout_hicc1=125
xfout_locc1=84

<region>
hikey=g#5
hivel=127
lokey=g5
lovel=1
offset=10010
pitch_keycenter=g#5
sample=Violas_pizzicato_MF_G#5_RR2.opus
</region>

<region>
hikey=g#4
hivel=127
lokey=g4
lovel=1
pitch_keycenter=g#4
sample=Violas_pizzicato_MF_G#4_RR2.opus
</region>

<region>
hikey=g#3
hivel=127
lokey=g3
lovel=1
pitch_keycenter=g#3
sample=Violas_pizzicato_MF_G#3_RR2.opus
</region>

<region>
hikey=f#5
hivel=127
lokey=f5
lovel=1
offset=10603
pitch_keycenter=f#5
sample=Violas_pizzicato_MF_F#5_RR2.opus
</region>

<region>
hikey=f#4
hivel=127
lokey=f4
lovel=1
pitch_keycenter=f#4
sample=Violas_pizzicato_MF_F#4_RR2.opus
</region>

<region>
hikey=f#3
hivel=127
lokey=f3
lovel=1
pitch_keycenter=f#3
sample=Violas_pizzicato_MF_F#3_RR2.opus
</region>

<region>
hikey=e5
hivel=127
lokey=d#5
lovel=1
offset=10700
pitch_keycenter=e5
sample=Violas_pizzicato_MF_E5_RR2.opus
</region>

<region>
hikey=e4
hivel=127
lokey=d#4
lovel=1
pitch_keycenter=e4
sample=Violas_pizzicato_MF_E4_RR2.opus
</region>

<region>
hikey=e3
hivel=127
lokey=d#3
lovel=1
offset=6134
pitch_keycenter=e3
sample=Violas_pizzicato_MF_E3_RR2.opus
</region>

<region>
hikey=d5
hivel=127
lokey=c#5
lovel=1
offset=9721
pitch_keycenter=d5
sample=Violas_pizzicato_MF_D5_RR2.opus
</region>

<region>
hikey=d4
hivel=127
lokey=c#4
lovel=1
offset=6325
pitch_keycenter=d4
sample=Violas_pizzicato_MF_D4_RR2.opus
</region>

<region>
hikey=d3
hivel=127
lokey=c#3
lovel=1
offset=9802
pitch_keycenter=d3
sample=Violas_pizzicato_MF_D3_RR2.opus
</region>

<region>
hikey=C#6
hivel=127
lokey=b5
lovel=1
offset=9594
pitch_keycenter=C6
sample=Violas_pizzicato_MF_C6_RR2.opus
</region>

<region>
hikey=c5
hivel=127
lokey=b4
lovel=1
offset=10259
pitch_keycenter=c5
sample=Violas_pizzicato_MF_C5_RR2.opus
</region>

<region>
hikey=c4
hivel=127
lokey=b3
lovel=1
offset=391
pitch_keycenter=c4
sample=Violas_pizzicato_MF_C4_RR2.opus
</region>

<region>
hivel=127
key=c3
lovel=1
offset=11453
sample=Violas_pizzicato_MF_C3_RR2.opus
</region>

<region>
hikey=a#5
hivel=127
lokey=a5
lovel=1
offset=8784
pitch_keycenter=a#5
sample=Violas_pizzicato_MF_A#5_RR2.opus
</region>

<region>
hikey=a#4
hivel=127
lokey=a4
lovel=1
offset=9400
pitch_keycenter=a#4
sample=Violas_pizzicato_MF_A#4_RR2.opus
</region>

<region>
hikey=a#3
hivel=127
lokey=a3
lovel=1
pitch_keycenter=a#3
sample=Violas_pizzicato_MF_A#3_RR2.opus
</region>
</group>

<group>
group_label=RR3_85-127
seq_length=4
seq_position=3
xf_cccurve=gain
xfin_hicc1=127
xfin_locc1=85
xfout_hicc1=127
xfout_locc1=127

<region>
hikey=g#5
hivel=127
lokey=g5
lovel=1
pitch_keycenter=g#5
sample=Violas_pizzicato_FF_G#5_RR3.opus
</region>

<region>
hikey=g#4
hivel=127
lokey=g4
lovel=1
pitch_keycenter=g#4
sample=Violas_pizzicato_FF_G#4_RR3.opus
</region>

<region>
hikey=g#3
hivel=127
lokey=g3
lovel=1
pitch_keycenter=g#3
sample=Violas_pizzicato_FF_G#3_RR3.opus
</region>

<region>
hikey=f#5
hivel=127
lokey=f5
lovel=1
pitch_keycenter=f#5
sample=Violas_pizzicato_FF_F#5_RR3.opus
</region>

<region>
hikey=f#4
hivel=127
lokey=f4
lovel=1
pitch_keycenter=f#4
sample=Violas_pizzicato_FF_F#4_RR3.opus
</region>

<region>
hikey=f#3
hivel=127
lokey=f3
lovel=1
pitch_keycenter=f#3
sample=Violas_pizzicato_FF_F#3_RR3.opus
</region>

<region>
hikey=e5
hivel=127
lokey=d#5
lovel=1
pitch_keycenter=e5
sample=Violas_pizzicato_FF_E5_RR3.opus
</region>

<region>
hikey=e4
hivel=127
lokey=d#4
lovel=1
pitch_keycenter=e4
sample=Violas_pizzicato_FF_E4_RR3.opus
</region>

<region>
hikey=e3
hivel=127
lokey=d#3
lovel=1
pitch_keycenter=e3
sample=Violas_pizzicato_FF_E3_RR3.opus
</region>

<region>
hikey=d5
hivel=127
lokey=c#5
lovel=1
pitch_keycenter=d5
sample=Violas_pizzicato_FF_D5_RR3.opus
</region>

<region>
hikey=d4
hivel=127
lokey=c#4
lovel=1
pitch_keycenter=d4
sample=Violas_pizzicato_FF_D4_RR3.opus
</region>

<region>
hikey=d3
hivel=127
lokey=c#3
lovel=1
pitch_keycenter=d3
sample=Violas_pizzicato_FF_D3_RR3.opus
</region>

<region>
hikey=C#6
hivel=127
lokey=b5
lovel=1
offset=238
pitch_keycenter=C6
sample=Violas_pizzicato_FF_C6_RR3.opus
</region>

<region>
hikey=c5
hivel=127
lokey=b4
lovel=1
pitch_keycenter=c5
sample=Violas_pizzicato_FF_C5_RR3.opus
</region>

<region>
hikey=c4
hivel=127
lokey=b3
lovel=1
pitch_keycenter=c4
sample=Violas_pizzicato_FF_C4_RR3.opus
</region>

<region>
hivel=127
key=c3
lovel=1
offset=12185
sample=Violas_pizzicato_FF_C3_RR3.opus
</region>

<region>
hikey=a#5
hivel=127
lokey=a5
lovel=1
pitch_keycenter=a#5
sample=Violas_pizzicato_FF_A#5_RR3.opus
</region>

<region>
hikey=a#4
hivel=127
lokey=a4
lovel=1
pitch_keycenter=a#4
sample=Violas_pizzicato_FF_A#4_RR3.opus
</region>

<region>
hikey=a#3
hivel=127
lokey=a3
lovel=1
pitch_keycenter=a#3
sample=Violas_pizzicato_FF_A#3_RR3.opus
</region>
</group>

<group>
group_label=RR3_0-42
seq_length=4
seq_position=3
xf_cccurve=gain
xfin_hicc1=42
xfout_hicc1=84
xfout_locc1=42

<region>
hikey=g#5
hivel=127
lokey=g5
lovel=1
offset=8604
pitch_keycenter=g#5
sample=Violas_pizzicato_PP_G#5_RR3.opus
</region>

<region>
hikey=g#4
hivel=127
lokey=g4
lovel=1
offset=11164
pitch_keycenter=g#4
sample=Violas_pizzicato_PP_G#4_RR3.opus
</region>

<region>
hikey=g#3
hivel=127
lokey=g3
lovel=1
offset=9565
pitch_keycenter=g#3
sample=Violas_pizzicato_PP_G#3_RR3.opus
</region>

<region>
hikey=f#5
hivel=127
lokey=f5
lovel=1
offset=8896
pitch_keycenter=f#5
sample=Violas_pizzicato_PP_F#5_RR3.opus
</region>

<region>
hikey=f#4
hivel=127
lokey=f4
lovel=1
offset=10615
pitch_keycenter=f#4
sample=Violas_pizzicato_PP_F#4_RR3.opus
</region>

<region>
hikey=f#3
hivel=127
lokey=f3
lovel=1
offset=10161
pitch_keycenter=f#3
sample=Violas_pizzicato_PP_F#3_RR3.opus
</region>

<region>
hikey=e5
hivel=127
lokey=d#5
lovel=1
offset=10080
pitch_keycenter=e5
sample=Violas_pizzicato_PP_E5_RR3.opus
</region>

<region>
hikey=e4
hivel=127
lokey=d#4
lovel=1
offset=10563
pitch_keycenter=e4
sample=Violas_pizzicato_PP_E4_RR3.opus
</region>

<region>
hikey=e3
hivel=127
lokey=d#3
lovel=1
offset=9816
pitch_keycenter=e3
sample=Violas_pizzicato_PP_E3_RR3.opus
</region>

<region>
hikey=d5
hivel=127
lokey=c#5
lovel=1
offset=11142
pitch_keycenter=d5
sample=Violas_pizzicato_PP_D5_RR3.opus
</region>

<region>
hikey=d4
hivel=127
lokey=c#4
lovel=1
offset=10446
pitch_keycenter=d4
sample=Violas_pizzicato_PP_D4_RR3.opus
</region>

<region>
hikey=d3
hivel=127
lokey=c#3
lovel=1
offset=7925
pitch_keycenter=d3
sample=Violas_pizzicato_PP_D3_RR3.opus
</region>

<region>
hikey=C#6
hivel=127
lokey=b5
lovel=1
offset=8243
pitch_keycenter=C6
sample=Violas_pizzicato_PP_C6_RR3.opus
</region>

<region>
hikey=c5
hivel=127
lokey=b4
lovel=1
offset=9359
pitch_keycenter=c5
sample=Violas_pizzicato_PP_C5_RR3.opus
</region>

<region>
hikey=c4
hivel=127
lokey=b3
lovel=1
offset=9607
pitch_keycenter=c4
sample=Violas_pizzicato_PP_C4_RR3.opus
</region>

<region>
hivel=127
key=c3
lovel=1
offset=10745
sample=Violas_pizzicato_PP_C3_RR3.opus
</region>

<region>
hikey=a#5
hivel=127
lokey=a5
lovel=1
offset=10378
pitch_keycenter=a#5
sample=Violas_pizzicato_PP_A#5_RR3.opus
</region>

<region>
hikey=a#4
hivel=127
lokey=a4
lovel=1
offset=10057
pitch_keycenter=a#4
sample=Violas_pizzicato_PP_A#4_RR3.opus
</region>

<region>
hikey=a#3
hivel=127
lokey=a3
lovel=1
offset=9510
pitch_keycenter=a#3
sample=Violas_pizzicato_PP_A#3_RR3.opus
</region>
</group>

<group>
group_label=RR3_43-84
seq_length=4
seq_position=3
xf_cccurve=gain
xfin_hicc1=84
xfin_locc1=43
xfout_hicc1=125
xfout_locc1=84

<region>
hikey=g#5
hivel=127
lokey=g5
lovel=1
offset=8603
pitch_keycenter=g#5
sample=Violas_pizzicato_MF_G#5_RR3.opus
</region>

<region>
hikey=g#4
hivel=127
lokey=g4
lovel=1
pitch_keycenter=g#4
sample=Violas_pizzicato_MF_G#4_RR3.opus
</region>

<region>
hikey=g#3
hivel=127
lokey=g3
lovel=1
offset=11351
pitch_keycenter=g#3
sample=Violas_pizzicato_MF_G#3_RR3.opus
</region>

<region>
hikey=f#5
hivel=127
lokey=f5
lovel=1
offset=9817
pitch_keycenter=f#5
sample=Violas_pizzicato_MF_F#5_RR3.opus
</region>

<region>
hikey=f#4
hivel=127
lokey=f4
lovel=1
pitch_keycenter=f#4
sample=Violas_pizzicato_MF_F#4_RR3.opus
</region>

<region>
hikey=f#3
hivel=127
lokey=f3
lovel=1
offset=6783
pitch_keycenter=f#3
sample=Violas_pizzicato_MF_F#3_RR3.opus
</region>

<region>
hikey=e5
hivel=127
lokey=d#5
lovel=1
offset=11465
pitch_keycenter=e5
sample=Violas_pizzicato_MF_E5_RR3.opus
</region>

<region>
hikey=e4
hivel=127
lokey=d#4
lovel=1
offset=10509
pitch_keycenter=e4
sample=Violas_pizzicato_MF_E4_RR3.opus
</region>

<region>
hikey=e3
hivel=127
lokey=d#3
lovel=1
offset=8338
pitch_keycenter=e3
sample=Violas_pizzicato_MF_E3_RR3.opus
</region>

<region>
hikey=d5
hivel=127
lokey=c#5
lovel=1
pitch_keycenter=d5
sample=Violas_pizzicato_MF_D5_RR3.opus
</region>

<region>
hikey=d4
hivel=127
lokey=c#4
lovel=1
offset=10097
pitch_keycenter=d4
sample=Violas_pizzicato_MF_D4_RR3.opus
</region>

<region>
hikey=d3
hivel=127
lokey=c#3
lovel=1
offset=4559
pitch_keycenter=d3
sample=Violas_pizzicato_MF_D3_RR3.opus
</region>

<region>
hikey=C#6
hivel=127
lokey=b5
lovel=1
offset=9838
pitch_keycenter=C6
sample=Violas_pizzicato_MF_C6_RR3.opus
</region>

<region>
hikey=c5
hivel=127
lokey=b4
lovel=1
offset=9035
pitch_keycenter=c5
sample=Violas_pizzicato_MF_C5_RR3.opus
</region>

<region>
hikey=c4
hivel=127
lokey=b3
lovel=1
pitch_keycenter=c4
sample=Violas_pizzicato_MF_C4_RR3.opus
</region>

<region>
hivel=127
key=c3
lovel=1
offset=11008
sample=Violas_pizzicato_MF_C3_RR3.opus
</region>

<region>
hikey=a#5
hivel=127
lokey=a5
lovel=1
offset=10633
pitch_keycenter=a#5
sample=Violas_pizzicato_MF_A#5_RR3.opus
</region>

<region>
hikey=a#4
hivel=127
lokey=a4
lovel=1
offset=9247
pitch_keycenter=a#4
sample=Violas_pizzicato_MF_A#4_RR3.opus
</region>

<region>
hikey=a#3
hivel=127
lokey=a3
lovel=1
pitch_keycenter=a#3
sample=Violas_pizzicato_MF_A#3_RR3.opus
</region>
</group>

<group>
group_label=RR4_85-127
seq_length=4
seq_position=4
xf_cccurve=gain
xfin_hicc1=127
xfin_locc1=85
xfout_hicc1=127
xfout_locc1=127

<region>
hikey=g#5
hivel=127
lokey=g5
lovel=1
offset=3412
pitch_keycenter=g#5
sample=Violas_pizzicato_FF_G#5_RR4.opus
</region>

<region>
hikey=g#4
hivel=127
lokey=g4
lovel=1
offset=1383
pitch_keycenter=g#4
sample=Violas_pizzicato_FF_G#4_RR4.opus
</region>

<region>
hikey=g#3
hivel=127
lokey=g3
lovel=1
offset=195
pitch_keycenter=g#3
sample=Violas_pizzicato_FF_G#3_RR4.opus
</region>

<region>
hikey=f#5
hivel=127
lokey=f5
lovel=1
pitch_keycenter=f#5
sample=Violas_pizzicato_FF_F#5_RR4.opus
</region>

<region>
hikey=f#4
hivel=127
lokey=f4
lovel=1
pitch_keycenter=f#4
sample=Violas_pizzicato_FF_F#4_RR4.opus
</region>

<region>
hikey=f#3
hivel=127
lokey=f3
lovel=1
pitch_keycenter=f#3
sample=Violas_pizzicato_FF_F#3_RR4.opus
</region>

<region>
hikey=e5
hivel=127
lokey=d#5
lovel=1
pitch_keycenter=e5
sample=Violas_pizzicato_FF_E5_RR4.opus
</region>

<region>
hikey=e4
hivel=127
lokey=d#4
lovel=1
pitch_keycenter=e4
sample=Violas_pizzicato_FF_E4_RR4.opus
</region>

<region>
hikey=e3
hivel=127
lokey=d#3
lovel=1
pitch_keycenter=e3
sample=Violas_pizzicato_FF_E3_RR4.opus
</region>

<region>
hikey=d5
hivel=127
lokey=c#5
lovel=1
pitch_keycenter=d5
sample=Violas_pizzicato_FF_D5_RR4.opus
</region>

<region>
hikey=d4
hivel=127
lokey=c#4
lovel=1
pitch_keycenter=d4
sample=Violas_pizzicato_FF_D4_RR4.opus
</region>

<region>
hikey=d3
hivel=127
lokey=c#3
lovel=1
pitch_keycenter=d3
sample=Violas_pizzicato_FF_D3_RR4.opus
</region>

<region>
hikey=C#6
hivel=127
lokey=b5
lovel=1
offset=2037
pitch_keycenter=C6
sample=Violas_pizzicato_FF_C6_RR4.opus
</region>

<region>
hikey=c5
hivel=127
lokey=b4
lovel=1
offset=1885
pitch_keycenter=c5
sample=Violas_pizzicato_FF_C5_RR4.opus
</region>

<region>
hikey=c4
hivel=127
lokey=b3
lovel=1
pitch_keycenter=c4
sample=Violas_pizzicato_FF_C4_RR4.opus
</region>

<region>
hivel=127
key=c3
lovel=1
offset=13162
sample=Violas_pizzicato_FF_C3_RR4.opus
</region>

<region>
hikey=a#5
hivel=127
lokey=a5
lovel=1
pitch_keycenter=a#5
sample=Violas_pizzicato_FF_A#5_RR4.opus
</region>

<region>
hikey=a#4
hivel=127
lokey=a4
lovel=1
offset=692
pitch_keycenter=a#4
sample=Violas_pizzicato_FF_A#4_RR4.opus
</region>

<region>
hikey=a#3
hivel=127
lokey=a3
lovel=1
pitch_keycenter=a#3
sample=Violas_pizzicato_FF_A#3_RR4.opus
</region>
</group>

<group>
group_label=RR4_0-42
seq_length=4
seq_position=4
xf_cccurve=gain
xfin_hicc1=42
xfout_hicc1=84
xfout_locc1=42

<region>
hikey=g#5
hivel=127
lokey=g5
lovel=1
offset=10393
pitch_keycenter=g#5
sample=Violas_pizzicato_PP_G#5_RR4.opus
</region>

<region>
hikey=g#4
hivel=127
lokey=g4
lovel=1
offset=8669
pitch_keycenter=g#4
sample=Violas_pizzicato_PP_G#4_RR4.opus
</region>

<region>
hikey=g#3
hivel=127
lokey=g3
lovel=1
offset=11878
pitch_keycenter=g#3
sample=Violas_pizzicato_PP_G#3_RR4.opus
</region>

<region>
hikey=f#5
hivel=127
lokey=f5
lovel=1
offset=11157
pitch_keycenter=f#5
sample=Violas_pizzicato_PP_F#5_RR4.opus
</region>

<region>
hikey=f#4
hivel=127
lokey=f4
lovel=1
offset=9790
pitch_keycenter=f#4
sample=Violas_pizzicato_PP_F#4_RR4.opus
</region>

<region>
hikey=f#3
hivel=127
lokey=f3
lovel=1
offset=9911
pitch_keycenter=f#3
sample=Violas_pizzicato_PP_F#3_RR4.opus
</region>

<region>
hikey=e5
hivel=127
lokey=d#5
lovel=1
offset=9685
pitch_keycenter=e5
sample=Violas_pizzicato_PP_E5_RR4.opus
</region>

<region>
hikey=e4
hivel=127
lokey=d#4
lovel=1
offset=10652
pitch_keycenter=e4
sample=Violas_pizzicato_PP_E4_RR4.opus
</region>

<region>
hikey=e3
hivel=127
lokey=d#3
lovel=1
offset=11208
pitch_keycenter=e3
sample=Violas_pizzicato_PP_E3_RR4.opus
</region>

<region>
hikey=d5
hivel=127
lokey=c#5
lovel=1
offset=11283
pitch_keycenter=d5
sample=Violas_pizzicato_PP_D5_RR4.opus
</region>

<region>
hikey=d4
hivel=127
lokey=c#4
lovel=1
offset=10569
pitch_keycenter=d4
sample=Violas_pizzicato_PP_D4_RR4.opus
</region>

<region>
hikey=d3
hivel=127
lokey=c#3
lovel=1
offset=10142
pitch_keycenter=d3
sample=Violas_pizzicato_PP_D3_RR4.opus
</region>

<region>
hikey=C#6
hivel=127
lokey=b5
lovel=1
offset=9785
pitch_keycenter=C6
sample=Violas_pizzicato_PP_C6_RR4.opus
</region>

<region>
hikey=c5
hivel=127
lokey=b4
lovel=1
offset=9757
pitch_keycenter=c5
sample=Violas_pizzicato_PP_C5_RR4.opus
</region>

<region>
hikey=c4
hivel=127
lokey=b3
lovel=1
offset=12432
pitch_keycenter=c4
sample=Violas_pizzicato_PP_C4_RR4.opus
</region>

<region>
hivel=127
key=c3
lovel=1
offset=8945
sample=Violas_pizzicato_PP_C3_RR4.opus
</region>

<region>
hikey=a#5
hivel=127
lokey=a5
lovel=1
offset=9710
pitch_keycenter=a#5
sample=Violas_pizzicato_PP_A#5_RR4.opus
</region>

<region>
hikey=a#4
hivel=127
lokey=a4
lovel=1
offset=10068
pitch_keycenter=a#4
sample=Violas_pizzicato_PP_A#4_RR4.opus
</region>

<region>
hikey=a#3
hivel=127
lokey=a3
lovel=1
offset=79
pitch_keycenter=a#3
sample=Violas_pizzicato_PP_A#3_RR4.opus
</region>
</group>

<group>
group_label=RR4_43-84
seq_length=4
seq_position=4
xf_cccurve=gain
xfin_hicc1=84
xfin_locc1=43
xfout_hicc1=125
xfout_locc1=84

<region>
hikey=g#5
hivel=127
lokey=g5
lovel=1
offset=10745
pitch_keycenter=g#5
sample=Violas_pizzicato_MF_G#5_RR4.opus
</region>

<region>
hikey=g#4
hivel=127
lokey=g4
lovel=1
pitch_keycenter=g#4
sample=Violas_pizzicato_MF_G#4_RR4.opus
</region>

<region>
hikey=g#3
hivel=127
lokey=g3
lovel=1
pitch_keycenter=g#3
sample=Violas_pizzicato_MF_G#3_RR4.opus
</region>

<region>
hikey=f#5
hivel=127
lokey=f5
lovel=1
offset=10625
pitch_keycenter=f#5
sample=Violas_pizzicato_MF_F#5_RR4.opus
</region>

<region>
hikey=f#4
hivel=127
lokey=f4
lovel=1
pitch_keycenter=f#4
sample=Violas_pizzicato_MF_F#4_RR4.opus
</region>

<region>
hikey=f#3
hivel=127
lokey=f3
lovel=1
offset=10360
pitch_keycenter=f#3
sample=Violas_pizzicato_MF_F#3_RR4.opus
</region>

<region>
hikey=e5
hivel=127
lokey=d#5
lovel=1
offset=10343
pitch_keycenter=e5
sample=Violas_pizzicato_MF_E5_RR4.opus
</region>

<region>
hikey=e4
hivel=127
lokey=d#4
lovel=1
offset=10909
pitch_keycenter=e4
sample=Violas_pizzicato_MF_E4_RR4.opus
</region>

<region>
hikey=e3
hivel=127
lokey=d#3
lovel=1
offset=8717
pitch_keycenter=e3
sample=Violas_pizzicato_MF_E3_RR4.opus
</region>

<region>
hikey=d5
hivel=127
lokey=c#5
lovel=1
offset=10511
pitch_keycenter=d5
sample=Violas_pizzicato_MF_D5_RR4.opus
</region>

<region>
hikey=d4
hivel=127
lokey=c#4
lovel=1
offset=11606
pitch_keycenter=d4
sample=Violas_pizzicato_MF_D4_RR4.opus
</region>

<region>
hikey=d3
hivel=127
lokey=c#3
lovel=1
offset=10684
pitch_keycenter=d3
sample=Violas_pizzicato_MF_D3_RR4.opus
</region>

<region>
hikey=C#6
hivel=127
lokey=b5
lovel=1
offset=10615
pitch_keycenter=C6
sample=Violas_pizzicato_MF_C6_RR4.opus
</region>

<region>
hikey=c5
hivel=127
lokey=b4
lovel=1
offset=10766
pitch_keycenter=c5
sample=Violas_pizzicato_MF_C5_RR4.opus
</region>

<region>
hikey=c4
hivel=127
lokey=b3
lovel=1
pitch_keycenter=c4
sample=Violas_pizzicato_MF_C4_RR4.opus
</region>

<region>
hivel=127
key=c3
lovel=1
offset=8401
sample=Violas_pizzicato_MF_C3_RR4.opus
</region>

<region>
hikey=a#5
hivel=127
lokey=a5
lovel=1
offset=10274
pitch_keycenter=a#5
sample=Violas_pizzicato_MF_A#5_RR4.opus
</region>

<region>
hikey=a#4
hivel=127
lokey=a4
lovel=1
offset=10617
pitch_keycenter=a#4
sample=Violas_pizzicato_MF_A#4_RR4.opus
</region>

<region>
hikey=a#3
hivel=127
lokey=a3
lovel=1
offset=116
pitch_keycenter=a#3
sample=Violas_pizzicato_MF_A#3_RR4.opus
</region>
</group>